<mxfile host="app.diagrams.net" modified="2022-05-12T18:05:24.041Z" agent="5.0 (Windows NT 10.0; Win64; x64) AppleWebKit/537.36 (KHTML, like Gecko) Chrome/101.0.4951.64 Safari/537.36" etag="mq7h4JqtEAiM7GXiUOrL" version="18.0.3" type="github">
  <diagram id="nUGHhReeH-MBsFlg4B1V" name="Page-1">
    <mxGraphModel dx="782" dy="536" grid="1" gridSize="10" guides="1" tooltips="1" connect="1" arrows="1" fold="1" page="1" pageScale="1" pageWidth="827" pageHeight="1169" math="0" shadow="0">
      <root>
        <mxCell id="0" />
        <mxCell id="1" parent="0" />
        <mxCell id="kmRWHUVwU9zdfsvz-WRA-9" style="edgeStyle=orthogonalEdgeStyle;rounded=0;orthogonalLoop=1;jettySize=auto;html=1;exitX=1;exitY=0.5;exitDx=0;exitDy=0;entryX=0;entryY=0.5;entryDx=0;entryDy=0;" edge="1" parent="1" source="kmRWHUVwU9zdfsvz-WRA-2" target="kmRWHUVwU9zdfsvz-WRA-3">
          <mxGeometry relative="1" as="geometry" />
        </mxCell>
        <mxCell id="kmRWHUVwU9zdfsvz-WRA-2" value="START" style="ellipse;whiteSpace=wrap;html=1;" vertex="1" parent="1">
          <mxGeometry x="20" width="120" height="80" as="geometry" />
        </mxCell>
        <mxCell id="kmRWHUVwU9zdfsvz-WRA-10" style="edgeStyle=orthogonalEdgeStyle;rounded=0;orthogonalLoop=1;jettySize=auto;html=1;exitX=0.5;exitY=1;exitDx=0;exitDy=0;entryX=0.5;entryY=0;entryDx=0;entryDy=0;" edge="1" parent="1" source="kmRWHUVwU9zdfsvz-WRA-3" target="kmRWHUVwU9zdfsvz-WRA-5">
          <mxGeometry relative="1" as="geometry" />
        </mxCell>
        <mxCell id="kmRWHUVwU9zdfsvz-WRA-3" value="NUMBER" style="shape=parallelogram;perimeter=parallelogramPerimeter;whiteSpace=wrap;html=1;fixedSize=1;" vertex="1" parent="1">
          <mxGeometry x="270" y="10" width="120" height="60" as="geometry" />
        </mxCell>
        <mxCell id="kmRWHUVwU9zdfsvz-WRA-11" value="NO" style="edgeStyle=orthogonalEdgeStyle;rounded=0;orthogonalLoop=1;jettySize=auto;html=1;exitX=0;exitY=0.5;exitDx=0;exitDy=0;entryX=0.994;entryY=0.383;entryDx=0;entryDy=0;entryPerimeter=0;" edge="1" parent="1" source="kmRWHUVwU9zdfsvz-WRA-5" target="kmRWHUVwU9zdfsvz-WRA-7">
          <mxGeometry relative="1" as="geometry" />
        </mxCell>
        <mxCell id="kmRWHUVwU9zdfsvz-WRA-12" value="YES" style="edgeStyle=orthogonalEdgeStyle;rounded=0;orthogonalLoop=1;jettySize=auto;html=1;exitX=1;exitY=0.5;exitDx=0;exitDy=0;entryX=0;entryY=0.5;entryDx=0;entryDy=0;" edge="1" parent="1" source="kmRWHUVwU9zdfsvz-WRA-5" target="kmRWHUVwU9zdfsvz-WRA-6">
          <mxGeometry relative="1" as="geometry" />
        </mxCell>
        <mxCell id="kmRWHUVwU9zdfsvz-WRA-5" value="NUMBER % 2 = 0 ?" style="rhombus;whiteSpace=wrap;html=1;" vertex="1" parent="1">
          <mxGeometry x="210" y="140" width="220" height="120" as="geometry" />
        </mxCell>
        <mxCell id="kmRWHUVwU9zdfsvz-WRA-14" style="edgeStyle=orthogonalEdgeStyle;rounded=0;orthogonalLoop=1;jettySize=auto;html=1;entryX=1;entryY=0.5;entryDx=0;entryDy=0;" edge="1" parent="1" source="kmRWHUVwU9zdfsvz-WRA-6" target="kmRWHUVwU9zdfsvz-WRA-13">
          <mxGeometry relative="1" as="geometry">
            <Array as="points">
              <mxPoint x="670" y="300" />
              <mxPoint x="480" y="300" />
              <mxPoint x="480" y="400" />
            </Array>
          </mxGeometry>
        </mxCell>
        <mxCell id="kmRWHUVwU9zdfsvz-WRA-6" value="ÇİFT" style="shape=document;whiteSpace=wrap;html=1;boundedLbl=1;" vertex="1" parent="1">
          <mxGeometry x="610" y="200" width="120" height="80" as="geometry" />
        </mxCell>
        <mxCell id="kmRWHUVwU9zdfsvz-WRA-15" style="edgeStyle=orthogonalEdgeStyle;rounded=0;orthogonalLoop=1;jettySize=auto;html=1;entryX=0.011;entryY=0.608;entryDx=0;entryDy=0;entryPerimeter=0;" edge="1" parent="1" source="kmRWHUVwU9zdfsvz-WRA-7" target="kmRWHUVwU9zdfsvz-WRA-13">
          <mxGeometry relative="1" as="geometry">
            <Array as="points">
              <mxPoint x="80" y="310" />
              <mxPoint x="241" y="310" />
            </Array>
          </mxGeometry>
        </mxCell>
        <mxCell id="kmRWHUVwU9zdfsvz-WRA-7" value="TEK" style="shape=document;whiteSpace=wrap;html=1;boundedLbl=1;" vertex="1" parent="1">
          <mxGeometry x="20" y="220" width="120" height="80" as="geometry" />
        </mxCell>
        <mxCell id="kmRWHUVwU9zdfsvz-WRA-13" value="FINISH" style="ellipse;whiteSpace=wrap;html=1;" vertex="1" parent="1">
          <mxGeometry x="270" y="360" width="120" height="80" as="geometry" />
        </mxCell>
      </root>
    </mxGraphModel>
  </diagram>
</mxfile>
